# xmcd
# 
# Track frame offsets:
#     182
#     14605
#     31035
#     42982
#     55690
#     72502
#     85840
#     100995
#     112920
#     132382
# 
# Disc length: 2029
# 
# Revision: 0
# Processed by: cddbd v1.5.2PL0 Copyright (c) Steve Scherf et al.
# Submitted via: fre:ac v1.0.27
# 
DISCID=7f07eb0a
DTITLE=Sonny Terry - Sonny is King
DYEAR=1990
DGENRE=Jazz
TTITLE0=One monkey don't stop the show
TTITLE1=Changed the lock on my door
TTITLE2=Tater pie
TTITLE3=She's so sweet
TTITLE4=Diggin' my potatoes
TTITLE5=Sonny's coming
TTITLE6=Ida Mae
TTITLE7=Callin' my mama
TTITLE8=Bad luck
TTITLE9=Blues from the bottom
EXTD=YEAR: 1990 ID3G: 0
EXTT0=
EXTT1=
EXTT2=
EXTT3=
EXTT4=
EXTT5=
EXTT6=
EXTT7=
EXTT8=
EXTT9=
PLAYORDER=
